<?xml version="1.0" standalone="no"?>
<!DOCTYPE svg PUBLIC "-//W3C//DTD SVG 20010904//EN"
 "http://www.w3.org/TR/2001/REC-SVG-20010904/DTD/svg10.dtd">
<svg version="1.0" xmlns="http://www.w3.org/2000/svg"
 width="1500.000000pt" height="1500.000000pt" viewBox="0 0 1500.000000 1500.000000"
 preserveAspectRatio="xMidYMid meet">
<metadata>
Created by potrace 1.14, written by Peter Selinger 2001-2017
</metadata>
<g transform="translate(0.000000,1500.000000) scale(0.100000,-0.100000)"
fill="#000000" stroke="none">
<path d="M11779 12606 c-4 -4 -200 -18 -236 -17 -13 0 -23 -5 -23 -12 0 -8 -4
-7 -10 3 -7 12 -12 12 -22 2 -15 -15 -52 -16 -42 -1 4 8 1 8 -12 1 -11 -5 -38
-8 -61 -7 -24 1 -43 -1 -43 -5 0 -4 -7 -11 -16 -14 -8 -3 -13 -2 -10 3 3 5 -1
12 -10 15 -8 3 -12 2 -9 -4 7 -11 -11 -13 -109 -11 -37 1 -74 -3 -81 -9 -9 -8
-15 -8 -20 0 -11 18 -47 11 -52 -11 -4 -13 -8 -16 -13 -10 -3 7 -14 9 -23 5
-9 -3 -15 -9 -13 -13 6 -9 -53 -6 -62 4 -4 5 -1 5 7 0 10 -6 12 -4 6 4 -5 9
-10 10 -18 2 -6 -6 -21 -11 -33 -11 -12 0 -24 -5 -26 -11 -3 -9 -10 -9 -26 0
-14 8 -22 8 -22 1 0 -5 -5 -10 -11 -10 -6 0 -8 7 -5 16 3 8 2 12 -4 9 -6 -3
-10 -2 -10 4 0 6 -7 8 -15 5 -11 -5 -13 -10 -5 -19 7 -8 5 -12 -5 -12 -8 0
-15 6 -15 14 0 18 -15 16 -31 -4 -13 -16 -12 -17 4 -4 9 7 17 9 17 3 0 -17
-30 -23 -37 -7 -5 13 -7 13 -20 -2 -14 -17 -14 -17 -9 0 7 22 4 21 -24 -3 -13
-11 -28 -20 -33 -20 -6 0 -2 6 8 14 18 13 17 14 -8 14 -15 0 -30 -4 -33 -9 -2
-4 -12 -5 -21 -2 -12 5 -14 3 -9 -8 4 -8 1 -5 -8 5 -10 13 -20 16 -28 10 -7
-5 -32 -9 -55 -8 -37 1 -41 -1 -30 -14 9 -12 9 -14 0 -9 -7 5 -21 -2 -34 -17
-25 -29 -42 -34 -139 -41 -41 -3 -76 -8 -79 -10 -11 -11 150 -2 359 20 43 4
328 29 455 40 57 4 116 8 402 23 66 4 120 5 118 2 -2 -3 3 -11 11 -17 9 -9 15
-10 20 -2 3 6 20 9 38 6 l31 -6 -30 14 c-29 14 -28 14 32 13 57 -1 61 -2 52
-19 -7 -15 -6 -19 6 -19 8 0 15 7 15 15 0 8 5 15 11 15 6 0 8 -8 5 -17 -4 -12
1 -9 12 6 11 13 24 21 30 17 6 -3 13 -2 16 3 3 5 32 9 63 9 32 -1 49 -3 38 -6
-21 -5 -65 -32 -52 -32 4 0 15 4 25 9 64 33 132 47 132 28 0 -9 2 -9 8 -1 9
15 142 24 142 9 0 -6 3 -7 8 0 4 6 47 10 96 10 118 0 121 -5 120 -164 -1 -151
-30 -278 -154 -671 -26 -85 -60 -193 -74 -240 -14 -47 -53 -175 -87 -285 -64
-209 -65 -214 -97 -335 -11 -41 -27 -97 -36 -125 -8 -27 -24 -84 -34 -125 -11
-41 -43 -154 -71 -250 -28 -96 -63 -218 -77 -270 -15 -52 -35 -122 -44 -155
-47 -157 -81 -298 -76 -312 3 -8 2 -12 -3 -9 -8 5 -18 -19 -27 -62 -3 -14
-129 -464 -149 -532 -7 -25 -40 -128 -73 -230 -112 -347 -274 -870 -306 -990
-8 -30 -19 -69 -24 -87 -6 -17 -8 -34 -4 -37 3 -3 0 -6 -7 -6 -7 0 -11 -7 -8
-15 4 -8 2 -17 -4 -20 -5 -4 -7 -11 -3 -16 3 -5 0 -16 -6 -24 -7 -8 -9 -15 -5
-15 4 0 2 -6 -4 -13 -6 -8 -8 -17 -4 -20 3 -4 1 -7 -6 -7 -7 0 -10 -4 -7 -8
10 -16 -106 -378 -140 -440 -22 -40 -34 -73 -16 -44 7 10 23 9 83 -2 41 -8
100 -17 131 -20 l56 -6 150 453 c169 508 245 745 425 1322 525 1682 760 2534
847 3068 20 126 21 142 5 319 -3 26 -13 82 -24 125 -11 43 -26 106 -35 141
-28 118 -65 153 -180 172 -50 8 -99 5 -331 -24 -11 -1 -26 3 -34 8 -11 8 -13
8 -7 -1 4 -7 3 -13 -3 -13 -5 0 -11 4 -13 10 -2 8 -29 16 -61 19 -5 1 -5 6 -2
11 6 10 2 14 -6 6z"/>
<path d="M3562 12560 c2 -9 -4 -14 -14 -14 -10 1 -15 -2 -12 -7 3 -5 -2 -9
-10 -9 -9 0 -16 -5 -16 -11 0 -6 7 -8 16 -5 8 3 12 2 9 -4 -7 -11 -41 -8 -52
5 -5 4 -2 5 5 1 6 -4 12 -3 12 2 0 13 -35 21 -60 15 -11 -3 -20 -10 -20 -16 0
-7 -4 -7 -12 1 -17 17 -33 15 -18 -3 9 -11 9 -15 1 -15 -6 0 -14 6 -17 13 -5
15 -34 19 -34 5 0 -4 -9 -3 -20 4 -14 9 -16 15 -7 20 7 5 -1 6 -18 2 -38 -9
-45 -14 -17 -14 11 0 24 -4 27 -10 3 -5 1 -10 -5 -10 -6 0 -8 -5 -4 -11 5 -8
9 -8 14 1 6 10 12 10 26 0 15 -9 16 -10 2 -6 -11 3 -15 0 -12 -7 3 -8 -4 -13
-15 -13 -11 0 -17 5 -14 10 4 6 -1 6 -13 1 -30 -13 -136 -6 -163 12 -22 14
-23 14 -18 0 7 -18 -19 -31 -29 -15 -5 7 -2 8 6 3 8 -5 11 -3 8 6 -3 8 -15 16
-27 17 -16 3 -21 0 -16 -9 6 -8 4 -10 -6 -4 -21 14 -59 15 -59 2 0 -7 -4 -6
-10 3 -8 13 -10 12 -10 -3 0 -14 -5 -17 -21 -12 -14 5 -19 3 -15 -3 3 -6 2
-13 -4 -17 -5 -3 -10 -1 -10 5 0 6 -5 8 -12 3 -21 -12 -80 -22 -145 -24 -13
-1 -20 -5 -17 -10 4 -8 -20 -13 -29 -6 -2 1 -12 -5 -22 -13 -11 -8 -16 -10
-12 -3 14 23 -111 -46 -132 -73 -20 -26 -21 -36 -17 -153 2 -69 6 -135 9 -146
2 -11 -1 -23 -7 -27 -7 -5 -7 -8 3 -8 11 0 11 -3 1 -15 -16 -20 -7 -114 18
-190 11 -30 16 -55 12 -55 -4 0 -1 -28 7 -62 7 -35 16 -76 19 -93 8 -44 56
-199 63 -205 3 -3 7 -18 9 -35 2 -16 8 -34 14 -40 8 -7 9 -6 4 2 -5 9 -2 11
10 6 11 -4 13 -8 6 -11 -17 -5 -15 -37 3 -52 10 -8 13 -21 9 -34 -6 -21 -6
-21 9 -1 l16 20 -3 -20 c-2 -11 1 -26 7 -33 7 -9 6 -11 -7 -6 -20 8 -21 14 15
-86 16 -47 39 -115 51 -152 12 -39 25 -65 31 -61 6 3 7 2 4 -4 -8 -14 10 -79
28 -96 8 -8 12 -17 8 -20 -7 -8 27 -97 38 -97 4 0 10 4 14 10 7 11 35 2 35
-12 0 -5 -4 -6 -10 -3 -17 11 -11 -4 11 -26 20 -20 19 -56 -3 -70 -5 -3 -3 -9
6 -12 9 -4 15 -3 15 1 -5 31 4 32 22 4 16 -25 24 -30 34 -22 10 8 15 8 21 -1
4 -8 3 -9 -4 -5 -8 5 -12 -2 -13 -21 0 -27 -1 -27 -10 -5 -10 26 -24 23 -32
-8 -4 -15 0 -20 16 -20 17 0 19 -2 8 -9 -16 -10 -24 -71 -10 -71 5 0 9 9 9 20
0 13 5 18 15 14 12 -5 13 -10 4 -20 -6 -8 -8 -14 -3 -14 4 0 -1 -7 -12 -16
-18 -15 -18 -15 2 -5 12 6 25 7 29 3 5 -4 6 0 3 9 -4 9 -2 22 3 30 6 10 9 4 9
-18 0 -22 -5 -33 -14 -33 -22 0 -29 -18 -13 -35 8 -8 16 -13 19 -12 2 1 -2 -4
-9 -12 -9 -11 -9 -20 2 -41 8 -15 11 -31 7 -35 -4 -3 -2 -5 3 -3 6 2 11 0 13
-4 10 -24 23 -78 27 -108 5 -55 37 -121 51 -109 9 8 11 5 7 -10 -3 -12 -1 -21
6 -21 6 0 11 11 11 25 0 14 -6 25 -12 25 -9 0 -8 3 2 10 9 5 19 5 26 -1 8 -7
14 -6 17 1 3 6 4 5 2 -2 -1 -7 -8 -12 -15 -10 -7 2 -10 -3 -7 -12 3 -8 0 -22
-7 -32 -7 -9 -11 -26 -8 -37 4 -15 7 -16 14 -5 8 10 9 10 6 -1 -6 -22 -28 -25
-29 -4 0 11 -3 13 -6 5 -8 -19 17 -44 32 -32 8 7 12 5 12 -5 0 -7 -5 -13 -10
-12 -5 1 -12 -4 -15 -12 -3 -10 0 -12 13 -7 16 6 16 4 4 -11 -9 -11 -10 -14
-1 -9 7 4 12 2 12 -4 0 -6 4 -9 8 -6 4 2 9 -4 9 -15 2 -17 -1 -18 -13 -8 -12
10 -13 9 -8 -5 3 -9 13 -16 21 -16 12 0 13 -3 4 -14 -9 -10 -9 -16 -1 -21 6
-4 9 -14 6 -21 -6 -17 32 -137 45 -142 5 -2 9 -13 9 -24 0 -12 8 -45 17 -75
12 -37 19 -49 26 -41 6 9 7 7 3 -6 -7 -22 41 -176 55 -176 4 0 6 -6 4 -12 -4
-10 105 -355 132 -418 3 -8 7 -22 9 -30 8 -39 41 -119 47 -114 3 3 3 -5 0 -18
-6 -21 -5 -22 12 -8 17 14 17 14 5 -6 -11 -18 -10 -28 5 -67 10 -26 22 -44 26
-41 5 3 6 10 3 16 -4 7 -2 8 5 4 9 -6 9 -11 1 -21 -13 -16 -5 -71 14 -94 6 -8
10 -16 8 -18 -6 -8 21 -92 29 -87 5 3 6 -2 3 -11 -4 -8 -2 -21 4 -28 11 -13
12 -17 12 -43 0 -9 5 -12 12 -8 6 4 8 3 5 -3 -12 -19 13 -72 30 -66 13 5 13 3
1 -16 -11 -18 -11 -23 2 -31 8 -5 11 -12 7 -16 -4 -4 0 -18 8 -31 9 -13 14
-27 11 -31 -8 -13 20 -83 29 -75 4 5 5 3 2 -4 -4 -6 -2 -24 5 -40 6 -15 11
-31 10 -35 -1 -5 8 -9 21 -9 19 -1 19 -2 3 -6 -15 -4 -16 -7 -5 -14 8 -5 9 -9
3 -9 -7 0 -1 -31 15 -80 14 -44 30 -80 35 -80 6 0 11 -15 10 -32 -1 -38 26
-119 38 -112 4 3 5 -2 2 -10 -3 -8 0 -31 6 -51 9 -26 16 -35 27 -30 13 4 14 3
4 -9 -15 -18 -5 -40 12 -29 9 5 9 3 1 -8 -9 -11 -6 -30 11 -82 13 -37 23 -70
23 -73 2 -27 35 -113 42 -109 5 3 7 -1 4 -9 -3 -8 15 -77 40 -153 25 -76 59
-182 77 -235 17 -54 35 -98 41 -98 5 0 6 -5 3 -10 -5 -9 116 -402 147 -479 6
-14 13 -35 15 -46 2 -11 19 -67 38 -125 19 -58 68 -211 110 -340 41 -129 79
-243 85 -252 5 -10 10 -25 10 -33 0 -9 7 -32 16 -53 8 -20 15 -39 15 -42 1 -3
5 -11 11 -17 6 -7 8 -13 5 -13 -6 0 8 -67 23 -105 9 -23 13 -25 25 -15 8 7 15
9 15 5 0 -4 -7 -13 -14 -19 -13 -10 -13 -16 1 -46 9 -19 17 -39 18 -45 6 -47
19 -85 27 -85 6 0 8 -6 5 -14 -3 -8 -3 -17 1 -20 3 -4 7 -12 8 -19 2 -11 16
-57 71 -232 14 -44 31 -84 37 -90 19 -15 27 -45 13 -45 -8 0 -7 -4 3 -9 8 -6
18 -7 24 -4 5 3 6 1 2 -6 -4 -6 -11 -9 -15 -7 -4 3 -8 -1 -8 -9 0 -8 4 -12 9
-9 9 6 11 -8 8 -43 -1 -13 4 -23 10 -23 7 0 9 -7 6 -16 -3 -8 -2 -12 3 -9 6 3
9 -8 9 -23 -1 -16 2 -34 6 -41 4 -6 10 -24 12 -38 3 -15 11 -41 19 -58 7 -16
16 -42 19 -57 3 -15 13 -34 22 -42 8 -9 12 -20 9 -26 -3 -5 -2 -10 4 -10 5 0
13 5 16 10 3 6 12 10 18 10 7 0 6 -4 -3 -10 -13 -8 -13 -12 -1 -32 10 -16 10
-23 2 -26 -8 -3 -6 -10 4 -25 11 -15 12 -24 3 -34 -8 -10 -8 -17 1 -26 9 -9
14 -9 21 3 6 9 10 10 10 3 0 -6 -4 -14 -9 -18 -6 -3 -9 -14 -8 -25 1 -14 4
-16 14 -8 10 8 13 6 13 -5 0 -8 3 -17 8 -20 4 -2 1 -2 -5 -1 -18 5 -16 -14 2
-33 8 -8 13 -19 10 -24 -7 -11 16 -90 24 -84 4 2 7 -6 6 -18 0 -12 5 -22 10
-22 6 0 9 6 8 15 -2 8 3 5 9 -8 9 -19 9 -26 -3 -34 -11 -8 -11 -9 3 -4 10 3
20 1 23 -4 4 -6 1 -10 -5 -10 -6 0 -2 -14 10 -30 23 -32 17 -42 -7 -12 -13 16
-13 15 -4 -3 5 -11 8 -35 7 -52 -1 -18 2 -29 7 -26 5 3 7 14 4 24 -7 27 10 13
29 -23 9 -16 11 -27 5 -24 -6 4 -11 1 -12 -6 0 -7 -4 -4 -9 7 -8 19 -9 19 -9
-2 -1 -12 4 -25 9 -28 6 -4 8 -10 5 -15 -7 -12 6 -41 16 -35 4 3 4 17 -1 30
-9 24 3 45 15 25 3 -5 4 -10 1 -10 -3 0 -1 -12 4 -26 6 -14 6 -23 1 -20 -5 3
-12 -1 -15 -10 -4 -10 -2 -13 6 -8 8 5 9 1 5 -12 -7 -18 -6 -18 9 1 15 19 15
19 8 -9 -5 -19 -3 -27 4 -22 6 4 8 -2 4 -16 -3 -14 -1 -19 6 -14 7 4 9 -1 7
-15 -3 -12 9 -46 25 -76 17 -30 30 -59 30 -65 0 -6 16 -30 35 -54 19 -23 35
-52 35 -64 0 -15 5 -20 14 -17 10 4 13 1 10 -8 -9 -21 6 -40 18 -24 7 11 9 11
7 -1 -3 -28 1 -36 31 -70 17 -18 30 -38 30 -44 0 -6 14 -27 31 -46 17 -19 27
-28 23 -20 -5 10 -1 9 14 -3 11 -11 28 -34 37 -53 9 -20 21 -32 27 -28 6 4 8
3 5 -3 -4 -6 14 -34 39 -62 46 -51 69 -65 57 -35 -4 12 -2 15 8 12 8 -3 14
-12 14 -21 0 -21 50 -66 87 -79 15 -5 27 -13 27 -16 -3 -19 3 -22 21 -12 16 8
20 8 18 -2 -2 -8 10 -14 35 -16 36 -3 54 -22 20 -22 -30 0 -7 -10 68 -29 76
-20 168 -37 182 -33 4 1 6 -4 5 -10 -4 -19 147 -41 517 -73 260 -23 956 -30
1330 -14 385 17 737 49 763 69 1 2 7 4 12 5 6 1 11 3 13 5 1 1 22 3 47 4 45 3
110 29 110 45 0 5 11 12 25 15 14 4 25 11 25 17 0 6 4 7 10 4 29 -18 166 100
195 168 6 16 15 28 18 28 4 -1 8 2 8 7 1 4 10 13 21 21 14 10 18 20 13 40 -3
14 -2 21 2 14 6 -8 18 7 37 43 16 30 33 54 38 54 5 0 6 5 2 12 -4 7 -3 8 4 4
8 -5 2 -25 -20 -64 -50 -93 -68 -130 -68 -144 1 -7 7 -2 15 12 8 14 14 21 15
16 0 -11 60 75 60 87 0 4 17 34 38 65 21 31 51 81 67 110 15 28 32 52 38 52 5
0 2 -11 -7 -25 -9 -13 -16 -31 -16 -39 0 -13 4 -14 25 -4 14 6 25 15 25 20 0
12 -14 10 -28 -4 -8 -8 -12 -8 -12 -1 0 13 28 25 41 17 5 -3 19 15 30 41 11
26 32 63 45 83 14 20 22 42 19 49 -2 8 0 11 5 8 9 -6 14 10 13 42 -1 7 3 11 7
8 4 -3 11 2 14 11 9 24 7 36 -6 28 -7 -4 -8 -3 -4 5 4 6 12 9 17 6 8 -6 11 2
8 21 0 4 4 10 10 13 6 4 12 19 13 34 1 15 7 27 12 27 5 0 6 3 3 7 -4 3 -1 13
6 21 10 13 9 15 -3 8 -8 -4 -7 -1 4 8 10 8 15 20 10 27 -4 7 -3 10 4 6 6 -5
22 27 40 80 17 49 42 120 56 158 28 79 104 330 166 545 113 397 318 970 562
1579 60 150 106 277 101 281 -7 7 -256 71 -259 67 -1 -1 -22 -72 -47 -157 -58
-197 -64 -213 -79 -204 -7 4 -8 3 -4 -5 11 -17 -20 -119 -135 -446 -28 -77
-62 -177 -76 -223 -15 -45 -30 -77 -33 -71 -4 6 -15 -10 -24 -37 -9 -26 -14
-49 -12 -51 2 -3 9 12 16 32 7 20 14 34 16 32 12 -12 -109 -365 -143 -416 -10
-14 -16 -29 -15 -34 1 -4 -29 -76 -67 -160 -158 -349 -176 -401 -401 -1142
-138 -456 -173 -547 -237 -633 -30 -39 -44 -35 -18 5 l18 28 -22 -20 c-15 -13
-20 -26 -17 -41 9 -36 -18 -54 -82 -55 -219 -3 -411 4 -691 26 -177 14 -377
28 -444 32 -156 10 -588 10 -782 1 -150 -8 -420 -15 -873 -23 l-243 -4 -77 31
c-42 17 -92 43 -110 59 -18 16 -36 29 -41 29 -16 0 -63 55 -86 100 -36 72
-325 853 -413 1115 -77 229 -138 417 -376 1155 -167 520 -283 844 -470 1316
-52 132 -138 379 -191 550 -122 390 -163 513 -265 799 -99 277 -117 328 -134
380 -8 22 -30 85 -51 140 -40 110 -121 344 -221 645 -69 206 -157 503 -219
735 -20 77 -64 214 -97 305 -33 91 -93 264 -133 385 -41 121 -87 258 -103 305
-33 92 -76 238 -142 480 -93 341 -164 525 -276 712 -79 131 -120 268 -105 356
4 28 4 52 0 52 -13 0 -11 20 4 34 23 23 78 48 93 42 8 -3 13 -2 10 2 -5 9 71
34 154 51 108 23 292 40 590 55 408 22 1517 13 1729 -13 74 -9 97 -29 107 -93
5 -30 20 -53 68 -101 33 -34 69 -80 78 -102 10 -22 45 -141 78 -264 34 -124
81 -288 105 -365 24 -78 75 -251 115 -386 82 -281 179 -591 240 -765 50 -143
162 -483 290 -875 248 -766 303 -932 383 -1150 47 -129 106 -296 131 -370 116
-347 172 -504 211 -595 7 -16 20 -52 30 -80 20 -57 96 -245 131 -323 13 -29
24 -54 24 -56 0 -2 8 -21 17 -42 9 -22 17 -41 18 -44 1 -3 17 -36 35 -75 19
-38 34 -72 35 -75 1 -7 153 -285 196 -360 35 -58 37 -66 21 -73 -13 -5 -11 -6
6 -3 18 3 25 -2 33 -22 6 -15 10 -29 9 -31 -1 -2 4 -8 12 -12 10 -6 8 -9 -7
-9 -14 0 -16 -3 -7 -8 16 -10 4 -45 -12 -35 -6 4 -6 0 2 -9 9 -11 10 -18 2
-23 -17 -10 -11 -25 10 -25 13 0 18 -5 14 -14 -3 -8 -11 -13 -18 -10 -7 3 -18
-2 -25 -10 -10 -12 -9 -14 8 -9 16 4 22 -1 27 -22 5 -19 9 -23 15 -14 4 7 5
17 3 21 -3 4 -2 8 3 9 4 0 16 2 25 4 12 2 15 -3 13 -16 -3 -14 1 -19 13 -17
27 5 32 21 14 42 -17 19 -16 19 10 2 20 -13 27 -14 32 -4 3 7 4 4 1 -8 -9 -34
4 -54 34 -53 15 1 19 3 10 6 -17 4 -29 31 -29 65 0 11 6 15 20 11 12 -3 20 0
20 6 0 7 4 10 8 7 5 -3 17 4 26 16 12 14 14 19 5 16 -8 -3 -20 1 -27 8 -7 8
-8 14 -2 14 5 0 10 5 10 10 0 14 -27 12 -33 -2 -4 -10 -6 -10 -6 0 -1 7 5 15
13 18 11 4 12 12 6 28 -9 23 11 61 25 48 5 -4 5 -1 1 5 -4 7 25 70 66 145 41
73 93 172 118 221 30 61 46 84 52 75 6 -9 7 -6 3 8 -6 23 6 57 41 114 11 19
24 52 28 74 4 21 11 46 16 55 14 26 80 197 80 209 0 5 7 13 16 16 8 3 12 10 9
16 -8 14 16 80 27 74 5 -3 6 5 3 19 -4 15 -1 30 8 38 7 8 12 19 10 25 -2 7 2
18 10 25 7 8 12 20 9 27 -2 6 1 12 8 12 6 0 8 5 5 10 -3 6 -2 10 4 10 6 0 8 7
5 14 -3 8 1 28 9 43 9 15 25 61 37 101 13 39 26 72 31 72 5 0 6 7 3 15 -4 8
-1 15 6 15 6 0 8 5 5 10 -4 6 -2 16 3 23 6 7 10 14 9 18 -4 11 168 507 174
503 11 -6 19 26 13 50 -3 15 1 29 11 40 9 9 17 29 17 46 1 16 5 27 10 24 4 -3
9 1 9 8 5 45 8 56 21 83 8 17 13 43 11 58 -2 18 0 26 6 23 6 -4 15 12 21 36 6
24 13 49 15 56 3 7 0 10 -5 7 -6 -3 -10 1 -10 10 0 9 4 14 9 11 4 -3 6 7 4 22
-4 22 -2 24 7 12 9 -12 10 -9 5 13 -4 18 -2 26 4 22 12 -7 26 39 17 54 -4 5
-2 12 4 16 5 3 7 17 4 31 -4 14 -2 24 4 24 6 0 11 9 11 20 1 11 1 29 2 40 0
11 4 18 8 15 11 -6 22 50 14 72 -5 11 -3 14 6 8 10 -5 11 -2 6 14 -4 12 -2 21
4 21 6 0 11 9 11 21 0 11 5 30 11 41 8 15 8 19 -1 13 -7 -5 -7 3 3 21 8 16 12
35 10 42 -3 6 0 12 6 12 6 0 11 5 11 11 0 5 -5 7 -11 3 -8 -4 -8 -1 -1 13 6
10 27 86 46 168 20 83 41 158 46 167 5 10 13 42 16 73 4 30 10 55 14 55 4 0 8
6 7 13 -1 44 4 68 15 61 6 -4 8 -3 5 3 -11 17 14 127 25 111 6 -9 7 -6 3 9 -3
12 16 108 44 220 27 109 57 234 67 278 13 60 19 75 25 60 5 -12 6 -2 2 24 -5
35 -3 42 7 36 9 -5 11 -4 6 3 -11 18 4 107 16 91 5 -9 6 -5 2 13 -3 16 0 35
11 51 11 18 14 37 11 64 -4 25 -3 31 2 18 7 -15 12 -5 21 47 7 37 10 71 6 77
-3 6 -2 11 3 11 9 0 27 80 37 157 2 18 6 41 9 51 4 11 10 48 15 83 5 35 21
118 36 184 15 66 31 138 35 160 5 22 11 49 14 61 7 33 45 163 65 224 11 30 31
98 46 150 34 114 94 247 125 275 13 11 29 34 36 52 13 31 30 40 134 72 33 10
32 10 -18 6 -64 -5 -138 -43 -187 -96 -20 -22 -33 -39 -29 -39 4 0 1 -8 -7
-17 -22 -28 -39 -61 -39 -77 0 -8 -6 -21 -12 -28 -7 -7 -15 -22 -16 -33 -6
-34 -43 -87 -58 -81 -8 3 -11 0 -8 -9 3 -8 13 -11 21 -8 9 4 14 2 12 -3 -22
-46 -34 -64 -48 -67 -10 -3 -8 -5 7 -6 12 0 22 -6 22 -13 0 -6 -3 -9 -6 -5
-10 9 -32 -16 -27 -30 3 -8 -2 -13 -12 -13 -11 0 -15 -5 -11 -15 3 -9 0 -15
-9 -15 -14 0 -20 -12 -16 -33 1 -5 -4 -5 -10 -1 -8 5 -10 2 -7 -7 6 -15 -16
-42 -25 -32 -3 3 -2 15 3 27 13 36 -3 50 -27 24 -27 -30 -40 -53 -25 -44 7 4
12 2 12 -3 0 -6 -5 -11 -11 -11 -5 0 -7 -4 -4 -10 3 -5 0 -10 -7 -10 -7 -1
-20 -16 -29 -35 -9 -19 -12 -32 -8 -29 5 3 9 1 9 -5 0 -5 -10 -13 -22 -17 -22
-7 -22 -7 -3 -15 13 -5 15 -8 5 -8 -17 -1 -46 -41 -30 -41 6 0 2 -10 -10 -22
-11 -12 -20 -29 -19 -37 0 -10 4 -8 9 7 10 23 20 29 20 12 0 -5 -10 -20 -21
-31 -29 -29 -50 -97 -389 -1264 -94 -324 -203 -699 -241 -833 -39 -133 -68
-249 -65 -258 4 -10 2 -13 -6 -8 -7 5 -9 0 -6 -14 3 -12 2 -22 -3 -24 -8 -3
-191 -630 -240 -823 -38 -152 -181 -651 -234 -820 -30 -93 -109 -363 -176
-600 -67 -236 -125 -434 -129 -438 -4 -5 -28 58 -54 140 -438 1378 -1017 3111
-1454 4353 -118 334 -172 483 -183 496 -5 6 -6 14 -2 17 3 4 1 7 -6 7 -7 0
-10 4 -7 9 7 11 -25 92 -34 86 -4 -2 -7 2 -8 10 -1 8 -3 22 -4 30 -1 8 -4 13
-6 10 -7 -6 -42 52 -42 69 0 7 -9 25 -21 40 -11 14 -17 26 -12 26 4 0 3 4 -3
8 -13 9 -74 123 -79 148 -2 11 -4 25 -4 33 -1 8 -4 11 -8 8 -3 -4 -11 3 -18
16 -47 88 -69 124 -84 137 -9 8 -15 23 -13 33 2 9 -1 17 -7 17 -6 0 -10 3 -9
8 4 12 -32 72 -43 72 -6 0 -7 5 -4 10 3 6 1 10 -5 10 -6 0 -8 4 -5 10 3 5 -3
15 -15 22 -11 7 -20 17 -20 22 0 4 -12 24 -27 42 -129 161 -148 169 -383 178
-184 6 -198 7 -217 19 -6 4 -14 4 -17 -1 -2 -4 -53 -6 -112 -4 -86 3 -111 7
-121 20 -12 15 -13 15 -7 1 4 -13 0 -17 -19 -15 -14 0 -23 4 -20 9 2 4 -5 7
-17 7 -12 0 -19 -4 -15 -9 3 -6 -3 -9 -14 -8 -11 0 -17 5 -14 10 9 15 -20 26
-40 16 -10 -6 -26 -8 -34 -5 -13 5 -14 4 -4 -8 10 -12 9 -14 -6 -11 -10 1 -17
7 -16 12 1 6 -14 9 -33 7 -19 -1 -32 1 -30 4 2 4 -2 13 -10 20 -8 7 -14 9 -14
4 0 -6 -11 -12 -25 -14 -14 -3 -25 -2 -25 3 0 5 -13 7 -29 6 -16 -1 -27 -5
-25 -9 11 -17 -15 -15 -34 2 -14 14 -22 16 -25 7 -3 -7 -6 -3 -7 8 -1 18 -1
19 -11 2 -8 -13 -14 -15 -30 -7 -10 6 -19 8 -19 4 0 -3 -12 2 -27 11 -22 15
-25 15 -20 2 4 -11 2 -14 -9 -10 -7 3 -14 9 -14 14 0 5 -11 9 -25 9 -14 0 -25
-4 -25 -9 0 -6 -10 -8 -21 -6 -54 11 -228 3 -250 -10 -4 -3 -10 -1 -13 4 -3 5
-15 7 -25 4 -10 -3 -32 3 -47 12 l-29 17 30 -26 c21 -18 25 -26 14 -26 -9 0
-22 7 -29 15 -7 9 -15 13 -18 10 -3 -3 -14 3 -24 12 -15 14 -19 14 -16 3z
m5742 -795 c-4 -8 -11 -12 -16 -9 -6 4 -5 10 3 15 19 12 19 11 13 -6z m-107
-207 c2 -17 0 -19 -7 -8 -5 8 -6 18 -4 22 8 12 10 10 11 -14z m37 -554 c3 -8
2 -12 -4 -9 -6 3 -10 10 -10 16 0 14 7 11 14 -7z m-6244 -89 c-17 -20 -5 -32
15 -15 8 7 15 8 15 2 0 -14 -31 -25 -42 -14 -11 11 0 42 14 42 6 0 5 -7 -2
-15z m-51 -72 c-12 -14 -12 -16 1 -11 9 3 24 0 35 -8 10 -8 14 -14 8 -14 -7 0
-15 5 -18 10 -10 16 -27 0 -22 -21 3 -11 1 -19 -4 -19 -5 0 -9 9 -9 21 0 11
-4 17 -10 14 -6 -4 -7 1 -3 12 8 24 25 45 31 38 3 -2 -1 -12 -9 -22z m29 -58
c-3 -3 -9 2 -12 12 -6 14 -5 15 5 6 7 -7 10 -15 7 -18z m6249 3 c-3 -8 -6 -5
-6 6 -1 11 2 17 5 13 3 -3 4 -12 1 -19z m-6297 -5 c0 -7 4 -13 9 -13 5 0 11
-9 14 -21 4 -15 2 -18 -7 -10 -9 8 -12 6 -11 -7 0 -9 5 -24 10 -32 4 -8 5 -12
0 -8 -4 4 -14 3 -22 -3 -7 -6 -13 -10 -14 -8 0 2 -1 29 -2 60 -1 39 2 56 11
56 6 0 12 -6 12 -14z m75 -69 c1 -31 -7 -30 -22 2 -11 23 -10 24 4 12 15 -11
16 -11 9 7 -4 11 -3 16 1 11 4 -4 8 -19 8 -32z m-21 -34 l17 -35 -21 24 c-11
13 -20 30 -20 39 0 19 3 15 24 -28z m43 -6 c-3 -3 -12 -4 -19 -1 -8 3 -5 6 6
6 11 1 17 -2 13 -5z m-10 -51 c-14 -14 -19 -15 -29 -4 -11 11 -10 13 5 8 16
-6 22 4 17 28 -1 6 4 4 11 -3 11 -10 10 -15 -4 -29z m100 -290 c-3 -10 -5 -4
-5 12 0 17 2 24 5 18 2 -7 2 -21 0 -30z m-17 -3 c0 -5 -2 -10 -4 -10 -3 0 -8
5 -11 10 -3 6 -1 10 4 10 6 0 11 -4 11 -10z m0 -44 c0 -2 -6 -9 -13 -15 -10
-8 -14 -7 -14 4 0 8 6 15 14 15 7 0 13 -2 13 -4z m63 -143 c-5 -12 -3 -14 8
-8 11 6 11 5 2 -5 -16 -18 -38 -3 -22 16 15 19 20 18 12 -3z m-1 -58 c3 3 11
-3 19 -12 13 -16 12 -17 -2 -5 -14 11 -18 9 -23 -13 -4 -16 -11 -23 -18 -19
-9 6 -9 9 0 12 7 2 12 10 12 18 0 9 -5 12 -12 8 -7 -4 -10 -4 -6 1 4 4 0 14
-10 22 -9 8 -11 12 -4 8 6 -3 12 0 12 7 1 7 6 3 13 -10 7 -12 16 -20 19 -17z
m98 -240 c-10 -13 -9 -15 9 -15 12 0 19 -4 16 -10 -4 -7 -13 -6 -26 1 -16 8
-18 13 -8 25 6 8 14 14 16 14 3 0 0 -7 -7 -15z m54 -10 c3 -8 1 -15 -4 -15 -6
0 -10 7 -10 15 0 8 2 15 4 15 2 0 6 -7 10 -15z m-29 -45 c17 -19 17 -19 -8 -7
-14 6 -23 15 -21 19 7 11 9 10 29 -12z m32 14 c-3 -3 -12 -4 -19 -1 -8 3 -5 6
6 6 11 1 17 -2 13 -5z m5546 -369 c-3 -9 -8 -14 -10 -11 -3 3 -2 9 2 15 9 16
15 13 8 -4z m-169 -839 c-3 -15 -8 -25 -11 -23 -2 3 -1 17 3 31 3 15 8 25 11
23 2 -3 1 -17 -3 -31z m-119 14 c3 -6 -1 -7 -9 -4 -18 7 -21 14 -7 14 6 0 13
-4 16 -10z m82 -5 c0 -8 -4 -12 -9 -9 -5 3 -6 10 -3 15 9 13 12 11 12 -6z
m-56 -29 c-8 -10 -9 -16 -1 -21 6 -3 7 -11 3 -18 -4 -7 -9 -4 -13 9 -7 17 4
44 17 44 3 0 0 -6 -6 -14z m-161 -701 c-7 -9 -15 -13 -19 -10 -3 3 1 10 9 15
21 14 24 12 10 -5z m-20 -65 c0 -5 -2 -10 -4 -10 -3 0 -8 5 -11 10 -3 6 -1 10
4 10 6 0 11 -4 11 -10z m-34 -67 c-10 -10 -19 5 -10 18 6 11 8 11 12 0 2 -7 1
-15 -2 -18z m-87 -49 c-6 -8 -17 -14 -23 -13 -7 0 -6 2 2 6 6 2 12 11 12 19 0
9 5 12 10 9 8 -5 7 -11 -1 -21z m71 2 c0 -2 -7 -7 -16 -10 -8 -3 -12 -2 -9 4
6 10 25 14 25 6z m-60 -40 c0 -2 -7 -7 -16 -10 -8 -3 -12 -2 -9 4 6 10 25 14
25 6z m-80 -10 c0 -2 -8 -10 -17 -17 -16 -13 -17 -12 -4 4 13 16 21 21 21 13z
m114 -4 c3 -5 -1 -9 -9 -9 -8 0 -12 4 -9 9 3 4 7 8 9 8 2 0 6 -4 9 -8z m-71
-47 c-7 -21 -12 -19 -10 4 0 11 5 18 9 15 4 -3 5 -11 1 -19z m-4253 -59 c0 -2
-6 -9 -14 -15 -11 -9 -16 -9 -22 0 -4 7 -3 9 4 5 6 -3 13 -2 17 4 6 10 15 14
15 6z m4200 -290 c0 -3 -4 -8 -10 -11 -5 -3 -10 -1 -10 4 0 6 5 11 10 11 6 0
10 -2 10 -4z m-140 -340 c0 -3 -4 -8 -10 -11 -5 -3 -10 -1 -10 4 0 6 5 11 10
11 6 0 10 -2 10 -4z m-100 -186 c6 -11 8 -20 6 -20 -3 0 -10 9 -16 20 -6 11
-8 20 -6 20 3 0 10 -9 16 -20z m-250 -570 c0 -5 -4 -10 -10 -10 -5 0 -10 5
-10 10 0 6 5 10 10 10 6 0 10 -4 10 -10z m-50 -49 c6 -11 6 -22 1 -25 -5 -3
-11 5 -13 19 -6 30 -2 32 12 6z m-53 -7 c3 -8 0 -21 -7 -27 -10 -10 -11 -7 -5
11 6 21 4 23 -17 17 -18 -5 -20 -4 -8 4 21 15 30 14 37 -5z m-2838 -1041 c-3
-21 2 -26 12 -13 9 13 10 13 6 -1 -3 -9 -1 -21 5 -27 6 -6 5 -12 -4 -17 -7 -5
-10 -5 -6 -1 4 5 -2 17 -12 29 -11 11 -17 24 -14 29 6 10 14 11 13 1z m47
-148 c0 -19 -3 -32 -8 -29 -13 8 -8 64 6 64 1 0 1 -16 2 -35z m51 -197 c-3 -8
-6 -5 -6 6 -1 11 2 17 5 13 3 -3 4 -12 1 -19z m207 -370 c-4 -6 -10 -5 -15 3
-14 22 -10 33 6 19 8 -7 12 -17 9 -22z m11 -178 c3 -5 2 -10 -4 -10 -5 0 -13
5 -16 10 -3 6 -2 10 4 10 5 0 13 -4 16 -10z m4620 -998 c-3 -3 -11 0 -18 7 -9
10 -8 11 6 5 10 -3 15 -9 12 -12z m-304 -319 c-12 -20 -14 -14 -5 12 4 9 9 14
11 11 3 -2 0 -13 -6 -23z m-30 -76 c-10 -9 -11 -8 -5 6 3 10 9 15 12 12 3 -3
0 -11 -7 -18z m-368 -264 c-7 -2 -19 -2 -25 0 -7 3 -2 5 12 5 14 0 19 -2 13
-5z m54 -9 c-3 -3 -12 -4 -19 -1 -8 3 -5 6 6 6 11 1 17 -2 13 -5z"/>
<path d="M3221 12523 c-7 -8 -11 -16 -8 -19 2 -2 10 2 17 11 17 20 9 27 -9 8z"/>
<path d="M3165 12520 c3 -5 8 -10 11 -10 2 0 4 5 4 10 0 6 -5 10 -11 10 -5 0
-7 -4 -4 -10z"/>
<path d="M10314 12468 c-40 -10 -54 -38 -19 -38 31 0 75 17 75 29 0 15 -23 18
-56 9z"/>
<path d="M11430 12470 c19 -13 30 -13 30 0 0 6 -10 10 -22 10 -19 0 -20 -2 -8
-10z"/>
<path d="M11473 12468 c1 -9 -10 -12 -35 -11 -21 1 -38 -2 -38 -8 0 -6 6 -7
13 -3 9 6 9 4 -1 -8 -11 -14 -10 -17 5 -21 12 -3 9 -5 -9 -6 -20 -1 -26 3 -22
14 4 10 0 15 -11 15 -10 0 -15 -5 -12 -13 3 -8 -3 -14 -15 -14 -14 -1 -17 1
-9 10 7 10 4 13 -12 13 -20 0 -46 -21 -47 -38 0 -17 18 -7 28 15 8 17 11 18
11 5 1 -10 8 -18 17 -18 8 0 12 -5 8 -11 -5 -8 -1 -8 14 0 28 15 75 15 66 -1
-5 -7 -3 -8 7 -2 8 4 19 9 24 10 6 1 21 7 35 12 24 10 24 11 3 11 -12 1 -25
-4 -28 -9 -4 -6 -11 -8 -16 -5 -5 4 -3 13 6 21 8 9 19 13 24 10 5 -3 9 6 9 19
0 14 -4 25 -9 25 -5 0 -8 -6 -6 -12z"/>
<path d="M11706 12465 c-4 -13 -2 -14 14 -5 23 13 26 20 6 20 -8 0 -16 -7 -20
-15z"/>
<path d="M11306 12459 c4 -7 65 -1 74 7 2 3 -14 4 -37 3 -23 -2 -40 -6 -37
-10z"/>
<path d="M11175 12450 c3 -5 8 -10 11 -10 2 0 4 5 4 10 0 6 -5 10 -11 10 -5 0
-7 -4 -4 -10z"/>
<path d="M11230 12447 c42 -22 60 -27 60 -17 0 6 -10 10 -22 11 -22 1 -22 1 2
9 21 7 17 8 -20 9 -43 1 -44 0 -20 -12z"/>
<path d="M3960 12438 c0 -12 7 -18 23 -17 15 0 17 2 7 6 -8 3 -18 11 -22 17
-5 7 -8 4 -8 -6z"/>
<path d="M11035 12440 c-3 -5 -1 -10 4 -10 6 0 11 5 11 10 0 6 -2 10 -4 10 -3
0 -8 -4 -11 -10z"/>
<path d="M11094 12435 c8 -8 20 -15 26 -15 6 0 18 7 26 15 14 13 13 15 -6 15
-14 0 -19 -4 -14 -12 6 -10 4 -10 -7 0 -7 6 -19 12 -27 12 -11 0 -11 -3 2 -15z"/>
<path d="M11735 12439 c-16 -5 -36 -7 -44 -4 -12 5 -12 3 0 -12 13 -15 12 -16
-8 -11 -13 3 -27 0 -33 -7 -8 -10 -4 -11 22 -6 26 5 37 3 51 -14 18 -20 18
-19 3 6 -17 28 -13 39 15 39 10 0 21 5 24 10 3 6 5 10 3 9 -2 0 -16 -5 -33
-10z"/>
<path d="M11825 12440 c-19 -8 -19 -9 3 -9 12 -1 22 4 22 9 0 6 -1 10 -2 9 -2
0 -12 -4 -23 -9z"/>
<path d="M3508 12433 c7 -3 16 -2 19 1 4 3 -2 6 -13 5 -11 0 -14 -3 -6 -6z"/>
<path d="M4702 12433 c-16 -6 -6 -23 14 -23 8 0 13 4 10 9 -4 5 0 12 6 14 9 4
8 5 -2 5 -8 0 -21 -2 -28 -5z"/>
<path d="M4848 12420 c22 -21 22 -23 6 -41 -10 -12 -13 -19 -5 -19 6 0 14 7
17 15 4 8 12 15 20 15 19 0 18 -16 -1 -24 -8 -3 -12 -12 -9 -21 3 -8 2 -15 -4
-15 -6 0 -13 6 -15 13 -4 9 -6 9 -6 0 -1 -19 21 -27 33 -12 6 8 17 14 24 15
36 3 42 5 42 14 0 7 -7 7 -21 0 -29 -16 -34 -7 -15 31 19 38 19 39 5 39 -5 0
-8 -4 -4 -9 6 -11 -33 -26 -43 -16 -4 3 0 11 8 16 13 9 13 10 0 6 -8 -2 -24 0
-35 6 -17 8 -17 6 3 -13z"/>
<path d="M10896 12428 c3 -4 11 -5 19 -1 21 7 19 12 -4 10 -11 0 -18 -5 -15
-9z"/>
<path d="M10990 12430 c-13 -8 -13 -10 2 -10 9 0 20 5 23 10 8 13 -5 13 -25 0z"/>
<path d="M11196 12420 l-29 -19 36 -6 c21 -4 43 -2 54 4 15 10 12 11 -14 6
-22 -4 -33 -3 -33 5 0 6 4 9 9 6 5 -3 11 1 15 9 7 19 -2 18 -38 -5z"/>
<path d="M3170 12422 c0 -4 -19 -7 -43 -7 -29 1 -44 -4 -44 -12 0 -7 4 -10 8
-7 4 2 10 0 14 -6 3 -5 18 -10 33 -10 20 0 23 3 13 9 -11 7 -9 10 9 13 23 3
42 28 21 28 -6 0 -11 -3 -11 -8z"/>
<path d="M4952 12410 c-12 -10 -22 -22 -22 -26 0 -4 8 0 18 8 9 9 24 17 32 20
7 2 10 7 4 10 -5 3 -19 -2 -32 -12z"/>
<path d="M5164 12418 c-3 -4 6 -8 20 -8 14 0 26 4 26 9 0 11 -39 10 -46 -1z"/>
<path d="M10758 12423 c7 -3 16 -2 19 1 4 3 -2 6 -13 5 -11 0 -14 -3 -6 -6z"/>
<path d="M10807 12419 c7 -7 15 -10 18 -7 3 3 -2 9 -12 12 -14 6 -15 5 -6 -5z"/>
<path d="M10874 12422 c3 -5 0 -13 -6 -15 -8 -3 -6 -6 5 -6 19 -1 23 14 5 25
-6 4 -8 3 -4 -4z"/>
<path d="M11062 12423 c-10 -4 -10 -8 -2 -18 9 -11 5 -18 -15 -31 -27 -18 -18
-37 14 -27 12 3 12 2 -2 -7 -9 -6 -21 -9 -26 -6 -11 7 -36 -22 -27 -31 3 -3 6
-1 6 6 0 6 6 11 13 10 6 -1 26 3 42 10 29 12 30 13 10 28 -20 15 -20 15 3 10
12 -3 22 -1 22 4 0 5 12 9 28 9 21 0 24 2 12 10 -13 9 -7 14 13 11 4 0 7 7 7
16 0 13 -3 14 -12 5 -15 -15 -72 -16 -63 -2 7 11 -2 12 -23 3z"/>
<path d="M4126 12412 c-3 -5 1 -9 9 -9 8 0 15 4 15 9 0 4 -4 8 -9 8 -6 0 -12
-4 -15 -8z"/>
<path d="M4736 12405 c-15 -11 -23 -12 -33 -3 -22 18 -23 4 -2 -27 11 -17 19
-22 17 -13 -2 9 0 16 4 15 4 -1 14 7 23 18 10 13 14 15 13 5 -2 -10 5 -15 19
-15 12 0 25 -4 29 -8 4 -4 1 -7 -6 -7 -7 0 -11 -3 -8 -6 8 -7 58 25 58 37 0 5
-5 9 -11 9 -5 0 -7 -4 -4 -10 3 -6 -4 -10 -17 -10 -18 0 -20 2 -8 10 8 5 11
13 6 17 -4 4 -13 0 -20 -10 -15 -19 -27 -23 -23 -6 3 18 -16 20 -37 4z"/>
<path d="M5240 12410 c0 -5 5 -10 11 -10 5 0 7 5 4 10 -3 6 -8 10 -11 10 -2 0
-4 -4 -4 -10z"/>
<path d="M10950 12412 c0 -5 7 -15 15 -22 8 -7 15 -18 15 -26 0 -18 17 -27 26
-13 4 8 3 9 -4 5 -7 -4 -12 -2 -12 3 0 6 8 11 18 11 10 0 27 7 38 15 18 14 17
14 -16 16 -49 3 -53 4 -67 12 -7 5 -13 4 -13 -1z m73 -29 c-7 -2 -19 -2 -25 0
-7 3 -2 5 12 5 14 0 19 -2 13 -5z"/>
<path d="M3040 12395 c7 -8 17 -15 22 -15 5 0 3 7 -6 15 -8 8 -18 15 -22 15
-3 0 -1 -7 6 -15z"/>
<path d="M10100 12400 l-35 -7 37 -2 c20 0 40 4 43 9 7 11 7 11 -45 0z"/>
<path d="M10740 12403 c5 -2 8 -9 5 -13 -3 -5 -1 -11 4 -14 5 -4 8 2 7 11 -2
9 -8 18 -15 19 -6 1 -7 0 -1 -3z"/>
<path d="M10922 12402 c-7 -2 -12 -11 -12 -20 0 -15 2 -15 10 -2 9 13 12 13
24 -3 8 -10 16 -15 18 -10 7 11 -26 40 -40 35z"/>
<path d="M11768 12403 c7 -3 16 -2 19 1 4 3 -2 6 -13 5 -11 0 -14 -3 -6 -6z"/>
<path d="M4983 12384 c0 -16 13 -19 21 -5 3 5 0 11 -7 14 -8 3 -14 -1 -14 -9z"/>
<path d="M5173 12393 c9 -2 14 -9 11 -15 -4 -6 -1 -9 6 -6 25 8 20 24 -7 25
-16 0 -20 -1 -10 -4z"/>
<path d="M2933 12367 c15 -13 23 -15 34 -6 7 7 11 14 8 18 -3 3 -10 -1 -15 -9
-8 -13 -10 -13 -10 -1 0 8 -3 11 -7 8 -3 -4 -11 -3 -18 1 -6 4 -2 -1 8 -11z"/>
<path d="M2996 12381 c-4 -5 3 -7 14 -4 23 6 26 13 6 13 -8 0 -17 -4 -20 -9z"/>
<path d="M4660 12380 c0 -5 5 -10 11 -10 5 0 7 5 4 10 -3 6 -8 10 -11 10 -2 0
-4 -4 -4 -10z"/>
<path d="M11175 12380 c27 -12 43 -12 25 0 -8 5 -22 9 -30 9 -10 0 -8 -3 5 -9z"/>
<path d="M11485 12380 c-3 -5 -1 -10 4 -10 6 0 11 5 11 10 0 6 -2 10 -4 10 -3
0 -8 -4 -11 -10z"/>
<path d="M10483 12373 c9 -2 15 -8 12 -13 -3 -5 -18 -5 -34 0 -26 7 -29 6 -26
-11 2 -10 -4 -23 -13 -29 -9 -5 -12 -9 -7 -10 20 0 38 18 30 30 -6 10 -2 11
16 7 28 -7 55 6 45 22 -4 6 -15 10 -24 10 -15 -1 -15 -2 1 -6z"/>
<path d="M10784 12366 c1 -8 5 -18 8 -22 4 -3 5 1 4 10 -1 8 -5 18 -8 22 -4 3
-5 -1 -4 -10z"/>
<path d="M11540 12365 c-11 -13 -10 -14 4 -9 9 3 16 10 16 15 0 13 -6 11 -20
-6z"/>
<path d="M11660 12368 c0 -4 14 -8 30 -8 17 0 30 2 30 4 0 2 -13 6 -30 8 -16
3 -30 1 -30 -4z"/>
<path d="M3018 12363 c7 -3 16 -2 19 1 4 3 -2 6 -13 5 -11 0 -14 -3 -6 -6z"/>
<path d="M4740 12362 c0 -5 6 -15 14 -21 12 -10 14 -9 12 5 -3 19 -26 33 -26
16z"/>
<path d="M9843 12363 c9 -2 23 -2 30 0 6 3 -1 5 -18 5 -16 0 -22 -2 -12 -5z"/>
<path d="M10596 12361 c-4 -5 3 -7 14 -4 23 6 26 13 6 13 -8 0 -17 -4 -20 -9z"/>
<path d="M11115 12361 c-3 -5 8 -9 25 -9 21 1 27 4 18 9 -17 11 -35 11 -43 0z"/>
<path d="M11428 12353 c6 -2 12 -11 12 -18 0 -7 8 -16 17 -19 10 -4 14 -4 10
0 -4 4 -2 13 4 21 6 7 10 13 8 14 -24 4 -61 6 -51 2z"/>
<path d="M9925 12340 c-4 -6 -10 -8 -15 -5 -5 3 -11 1 -15 -5 -3 -5 1 -10 10
-10 9 0 14 -4 11 -9 -4 -5 4 -6 16 -3 19 5 20 7 5 10 -14 3 -16 7 -6 18 6 8 9
14 6 14 -3 0 -9 -5 -12 -10z"/>
<path d="M10110 12335 c-9 -11 -17 -12 -32 -4 -16 9 -24 7 -36 -5 -9 -8 -12
-19 -8 -23 4 -4 11 -1 16 7 7 12 13 12 27 4 15 -9 22 -7 36 12 20 26 17 33 -3
9z"/>
<path d="M10248 12343 c6 -2 18 -2 25 0 6 3 1 5 -13 5 -14 0 -19 -2 -12 -5z"/>
<path d="M10506 12335 c-8 -8 -23 -12 -33 -9 -17 5 -17 5 0 -6 15 -9 22 -9 35
3 9 8 24 17 32 20 12 4 12 6 -2 6 -9 1 -23 -6 -32 -14z"/>
<path d="M11278 12343 c12 -2 30 -2 40 0 9 3 -1 5 -23 4 -22 0 -30 -2 -17 -4z"/>
<path d="M10170 12330 c-13 -8 -13 -10 2 -10 9 0 20 5 23 10 8 13 -5 13 -25 0z"/>
<path d="M11121 12327 c-8 -11 -6 -13 12 -11 12 1 27 3 32 3 6 1 3 6 -5 11
-20 13 -26 12 -39 -3z"/>
<path d="M10135 12320 c-3 -5 -1 -10 4 -10 6 0 11 5 11 10 0 6 -2 10 -4 10 -3
0 -8 -4 -11 -10z"/>
<path d="M10206 12314 c-5 -14 -4 -15 8 -5 8 7 20 10 26 6 5 -3 10 -1 10 4 0
17 -37 13 -44 -5z"/>
<path d="M10275 12320 c-3 -5 -1 -10 4 -10 6 0 11 5 11 10 0 6 -2 10 -4 10 -3
0 -8 -4 -11 -10z"/>
<path d="M10530 12320 c-13 -8 -12 -10 3 -10 10 0 16 -4 13 -8 -2 -4 7 -8 22
-9 26 -2 26 -2 4 8 -13 5 -20 13 -17 19 8 13 -5 13 -25 0z"/>
<path d="M10845 12319 c-4 -6 -14 -8 -22 -5 -8 3 -11 1 -8 -4 3 -6 -2 -10 -11
-10 -10 0 -15 -2 -12 -5 10 -10 56 6 62 21 6 16 0 19 -9 3z"/>
<path d="M10879 12313 c-13 -16 -12 -17 4 -4 16 13 21 21 13 21 -2 0 -10 -8
-17 -17z"/>
<path d="M11260 12319 c0 -5 5 -7 10 -4 6 3 10 8 10 11 0 2 -4 4 -10 4 -5 0
-10 -5 -10 -11z"/>
<path d="M11728 12323 c7 -3 16 -2 19 1 4 3 -2 6 -13 5 -11 0 -14 -3 -6 -6z"/>
<path d="M10326 12309 c4 -7 44 0 44 7 0 2 -11 3 -24 2 -14 -1 -23 -5 -20 -9z"/>
<path d="M10913 12306 c0 -7 6 -13 14 -13 7 0 13 4 13 8 0 4 -6 9 -13 12 -8 3
-14 0 -14 -7z"/>
<path d="M11180 12310 c0 -5 7 -7 15 -4 8 4 15 8 15 10 0 2 -7 4 -15 4 -8 0
-15 -4 -15 -10z"/>
<path d="M9995 12300 c-3 -5 -2 -10 4 -10 5 0 13 5 16 10 3 6 2 10 -4 10 -5 0
-13 -4 -16 -10z"/>
<path d="M10296 12302 c-3 -5 1 -9 9 -9 8 0 12 4 9 9 -3 4 -7 8 -9 8 -2 0 -6
-4 -9 -8z"/>
<path d="M9807 12285 c3 -8 9 -12 14 -9 12 7 11 11 -5 17 -10 4 -13 1 -9 -8z"/>
<path d="M9948 12293 c6 -2 18 -2 25 0 6 3 1 5 -13 5 -14 0 -19 -2 -12 -5z"/>
<path d="M10390 12290 c8 -5 22 -9 30 -9 10 0 8 3 -5 9 -27 12 -43 12 -25 0z"/>
<path d="M10510 12290 c0 -5 5 -10 11 -10 5 0 7 5 4 10 -3 6 -8 10 -11 10 -2
0 -4 -4 -4 -10z"/>
<path d="M10610 12290 c19 -13 30 -13 30 0 0 6 -10 10 -22 10 -19 0 -20 -2 -8
-10z"/>
<path d="M10660 12290 c-12 -8 -10 -9 7 -7 12 2 26 6 29 10 11 11 -19 8 -36
-3z"/>
<path d="M11095 12290 c-3 -5 -1 -10 4 -10 6 0 11 5 11 10 0 6 -2 10 -4 10 -3
0 -8 -4 -11 -10z"/>
<path d="M10277 12279 c7 -7 15 -10 18 -7 3 3 -2 9 -12 12 -14 6 -15 5 -6 -5z"/>
<path d="M10775 12270 c1 -8 6 -15 11 -14 11 0 64 22 64 26 0 2 -17 3 -39 3
-29 0 -38 -4 -36 -15z"/>
<path d="M9928 12273 c7 -3 16 -2 19 1 4 3 -2 6 -13 5 -11 0 -14 -3 -6 -6z"/>
<path d="M10467 12259 c-4 -16 -3 -18 9 -8 7 6 11 15 8 20 -8 13 -11 11 -17
-12z"/>
<path d="M10534 12264 c-18 -14 -18 -14 6 -3 31 14 36 19 24 19 -6 0 -19 -7
-30 -16z"/>
<path d="M10964 12265 c-5 -11 -17 -14 -48 -10 -30 4 -36 3 -21 -4 33 -16 61
-12 80 9 11 12 13 20 6 20 -6 0 -14 -7 -17 -15z"/>
<path d="M10218 12263 c7 -3 16 -2 19 1 4 3 -2 6 -13 5 -11 0 -14 -3 -6 -6z"/>
<path d="M10638 12263 c7 -3 16 -2 19 1 4 3 -2 6 -13 5 -11 0 -14 -3 -6 -6z"/>
<path d="M11350 12260 c12 -8 12 -10 1 -10 -8 0 -12 -2 -9 -5 3 -3 13 -2 22 1
14 5 15 9 4 15 -7 5 -17 9 -23 9 -5 0 -3 -5 5 -10z"/>
<path d="M11445 12257 c20 -15 20 -16 -5 -26 -14 -5 -20 -10 -14 -10 10 -1 74
28 74 33 0 1 -6 3 -12 3 -7 0 -24 3 -38 7 -24 8 -24 8 -5 -7z"/>
<path d="M11638 12263 c6 -2 18 -2 25 0 6 3 1 5 -13 5 -14 0 -19 -2 -12 -5z"/>
<path d="M9950 12245 c-10 -12 -10 -15 2 -15 8 0 15 7 15 15 0 8 -1 15 -2 15
-2 0 -8 -7 -15 -15z"/>
<path d="M11140 12245 c0 -8 4 -15 10 -15 5 0 7 7 4 15 -4 8 -8 15 -10 15 -2
0 -4 -7 -4 -15z"/>
<path d="M11578 12253 c6 -2 18 -2 25 0 6 3 1 5 -13 5 -14 0 -19 -2 -12 -5z"/>
<path d="M10815 12240 c3 -5 8 -10 11 -10 2 0 4 5 4 10 0 6 -5 10 -11 10 -5 0
-7 -4 -4 -10z"/>
<path d="M11170 12239 c0 -24 -30 -32 -50 -14 -15 14 -19 13 -36 -6 -19 -22
-19 -22 4 -8 21 12 25 12 37 -5 9 -11 18 -15 27 -10 7 5 18 9 25 10 6 1 19 7
30 14 15 10 15 11 1 6 -10 -3 -22 2 -27 12 -9 15 -10 15 -11 1z"/>
<path d="M10176 12231 c-4 -5 3 -7 14 -4 23 6 26 13 6 13 -8 0 -17 -4 -20 -9z"/>
<path d="M10753 12233 c9 -2 15 -9 12 -14 -10 -15 1 -10 15 6 11 13 8 15 -16
14 -17 -1 -22 -3 -11 -6z"/>
<path d="M10858 12233 c23 -4 23 -5 5 -19 -17 -14 -16 -14 5 -4 27 13 20 31
-11 29 -21 -2 -21 -2 1 -6z"/>
<path d="M11326 12229 c3 -5 0 -9 -7 -9 -18 0 -5 -10 18 -14 25 -5 26 21 1 27
-10 3 -16 1 -12 -4z"/>
<path d="M10408 12223 c7 -3 16 -2 19 1 4 3 -2 6 -13 5 -11 0 -14 -3 -6 -6z"/>
<path d="M10679 12222 c9 -7 10 -11 2 -15 -7 -4 -8 -5 0 -3 15 2 13 20 -3 24
-10 3 -10 2 1 -6z"/>
<path d="M10936 12215 c-9 -26 -7 -32 5 -12 6 10 9 21 6 23 -2 3 -7 -2 -11
-11z"/>
<path d="M11275 12220 c3 -5 10 -10 16 -10 5 0 9 5 9 10 0 6 -7 10 -16 10 -8
0 -12 -4 -9 -10z"/>
<path d="M11378 12223 c6 -2 18 -2 25 0 6 3 1 5 -13 5 -14 0 -19 -2 -12 -5z"/>
<path d="M10798 12213 c7 -3 16 -2 19 1 4 3 -2 6 -13 5 -11 0 -14 -3 -6 -6z"/>
<path d="M10966 12211 c-10 -15 34 -25 48 -11 8 10 8 11 -2 6 -7 -4 -19 -3
-27 4 -8 7 -15 7 -19 1z"/>
<path d="M10817 12192 c-15 -17 -15 -18 11 -19 17 0 20 1 8 4 -15 4 -16 7 -5
13 7 5 11 11 8 15 -3 3 -13 -3 -22 -13z"/>
<path d="M10761 12186 c-10 -12 -8 -13 8 -9 12 3 18 9 15 14 -7 12 -10 11 -23
-5z"/>
<path d="M11195 12190 c-19 -8 -19 -9 3 -9 12 -1 22 4 22 9 0 6 -1 10 -2 9 -2
0 -12 -4 -23 -9z"/>
<path d="M9878 12183 c7 -3 16 -2 19 1 4 3 -2 6 -13 5 -11 0 -14 -3 -6 -6z"/>
<path d="M10716 12177 c3 -10 9 -15 12 -12 3 3 0 11 -7 18 -10 9 -11 8 -5 -6z"/>
<path d="M10675 12160 c3 -5 8 -10 11 -10 2 0 4 5 4 10 0 6 -5 10 -11 10 -5 0
-7 -4 -4 -10z"/>
<path d="M10838 12153 c7 -3 16 -2 19 1 4 3 -2 6 -13 5 -11 0 -14 -3 -6 -6z"/>
<path d="M10710 12139 c0 -5 5 -7 10 -4 6 3 10 8 10 11 0 2 -4 4 -10 4 -5 0
-10 -5 -10 -11z"/>
<path d="M9988 12133 c7 -3 16 -2 19 1 4 3 -2 6 -13 5 -11 0 -14 -3 -6 -6z"/>
<path d="M11598 12113 c6 -2 18 -2 25 0 6 3 1 5 -13 5 -14 0 -19 -2 -12 -5z"/>
<path d="M11255 12040 c-3 -6 1 -7 9 -4 18 7 21 14 7 14 -6 0 -13 -4 -16 -10z"/>
<path d="M11053 12033 c9 -2 23 -2 30 0 6 3 -1 5 -18 5 -16 0 -22 -2 -12 -5z"/>
<path d="M11648 12013 c7 -3 16 -2 19 1 4 3 -2 6 -13 5 -11 0 -14 -3 -6 -6z"/>
<path d="M10615 11980 c-3 -6 1 -7 9 -4 18 7 21 14 7 14 -6 0 -13 -4 -16 -10z"/>
<path d="M10718 11963 c7 -3 16 -2 19 1 4 3 -2 6 -13 5 -11 0 -14 -3 -6 -6z"/>
<path d="M9414 11944 c-18 -14 -18 -15 4 -4 12 6 22 13 22 15 0 8 -5 6 -26
-11z"/>
<path d="M9321 11826 c-7 -8 -8 -17 -3 -20 6 -3 12 3 15 14 6 24 4 25 -12 6z"/>
<path d="M10998 11483 c7 -3 16 -2 19 1 4 3 -2 6 -13 5 -11 0 -14 -3 -6 -6z"/>
<path d="M10738 11323 c7 -3 16 -2 19 1 4 3 -2 6 -13 5 -11 0 -14 -3 -6 -6z"/>
<path d="M10988 11283 c6 -2 18 -2 25 0 6 3 1 5 -13 5 -14 0 -19 -2 -12 -5z"/>
<path d="M10318 10703 c7 -3 16 -2 19 1 4 3 -2 6 -13 5 -11 0 -14 -3 -6 -6z"/>
<path d="M2913 10641 c0 -11 5 -18 9 -15 4 3 5 11 1 19 -7 21 -12 19 -10 -4z"/>
<path d="M9131 10354 c0 -11 3 -14 6 -6 3 7 2 16 -1 19 -3 4 -6 -2 -5 -13z"/>
<path d="M9828 10303 c7 -3 16 -2 19 1 4 3 -2 6 -13 5 -11 0 -14 -3 -6 -6z"/>
<path d="M8705 8449 c-11 -16 -1 -19 13 -3 7 8 8 14 3 14 -5 0 -13 -5 -16 -11z"/>
<path d="M8525 7961 c-16 -3 -25 -9 -20 -13 10 -6 55 7 55 17 0 3 -1 4 -2 4
-2 -1 -16 -4 -33 -8z"/>
<path d="M8200 7013 c8 -3 19 -11 23 -17 6 -7 7 -6 4 4 -2 8 -12 16 -23 17
-13 2 -15 1 -4 -4z"/>
<path d="M10761 6971 c0 -13 -16 -70 -35 -125 -39 -113 -79 -266 -73 -273 3
-2 10 20 17 49 7 29 32 115 57 190 24 75 43 147 40 160 -4 23 -4 23 -6 -1z"/>
<path d="M8206 6967 c-11 -8 -17 -20 -14 -27 2 -8 10 -3 21 14 20 30 19 32 -7
13z"/>
<path d="M10876 6952 c-3 -3 -1 -11 5 -19 9 -10 7 -13 -7 -13 -13 0 -15 -3 -7
-11 8 -8 17 -7 34 2 17 8 20 14 10 17 -10 3 -10 6 -1 12 8 5 5 9 -9 13 -11 2
-22 2 -25 -1z"/>
<path d="M8250 6899 c0 -5 5 -7 10 -4 6 3 10 8 10 11 0 2 -4 4 -10 4 -5 0 -10
-5 -10 -11z"/>
<path d="M10873 6893 c-23 -4 -33 -23 -13 -23 6 0 10 -5 10 -11 0 -5 -4 -8 -9
-4 -5 3 -12 1 -16 -4 -3 -5 3 -14 12 -20 16 -9 15 -10 -6 -11 -16 0 -22 -3
-15 -10 5 -5 20 -7 32 -3 17 4 21 10 17 24 -4 11 -2 19 6 19 9 0 8 4 -1 15
-10 12 -10 15 4 15 9 0 16 5 16 10 0 6 -3 9 -7 9 -5 -1 -18 -4 -30 -6z"/>
<path d="M10848 6793 c-26 -6 -22 -18 10 -32 25 -10 26 -10 8 4 -19 15 -19 15
3 15 12 0 19 4 16 10 -6 10 -9 11 -37 3z"/>
<path d="M8195 6730 c3 -5 8 -10 11 -10 2 0 4 5 4 10 0 6 -5 10 -11 10 -5 0
-7 -4 -4 -10z"/>
<path d="M10810 6725 c0 -23 28 -30 56 -15 18 10 21 16 12 22 -23 14 -68 9
-68 -7z m45 -5 c3 -5 -1 -10 -9 -10 -8 0 -18 5 -21 10 -3 6 1 10 9 10 8 0 18
-4 21 -10z"/>
<path d="M10800 6676 c0 -18 39 -31 52 -18 15 15 0 32 -28 32 -14 0 -24 -6
-24 -14z"/>
<path d="M10790 6633 c0 -5 16 -9 35 -10 20 -1 33 3 30 8 -7 11 -65 12 -65 2z"/>
<path d="M7985 6620 c-3 -5 -1 -10 4 -10 6 0 11 5 11 10 0 6 -2 10 -4 10 -3 0
-8 -4 -11 -10z"/>
<path d="M10786 6602 c-3 -5 0 -9 7 -8 6 0 12 -3 12 -9 0 -13 -28 -13 -37 0
-5 7 -8 7 -8 0 0 -15 13 -30 32 -41 16 -9 16 -11 -3 -22 -12 -8 -18 -9 -14 -3
3 6 1 11 -4 11 -6 0 -11 -7 -11 -16 0 -11 6 -15 20 -11 11 3 20 1 20 -5 0 -5
4 -6 10 -3 13 8 7 48 -8 53 -7 2 -12 8 -12 13 0 4 6 6 13 3 7 -2 22 4 32 16
15 17 16 20 2 20 -8 0 -22 3 -30 6 -8 3 -18 1 -21 -4z"/>
<path d="M10773 6483 c9 -2 17 -9 17 -14 0 -6 -10 -8 -22 -4 -18 5 -20 4 -8
-4 13 -9 13 -11 -2 -11 -25 0 -23 -36 2 -43 28 -7 47 18 23 32 -15 9 -16 10
-2 11 9 0 22 6 28 14 9 11 8 15 -5 20 -8 3 -23 5 -32 5 -15 -1 -15 -2 1 -6z
m5 -61 c2 -7 -2 -10 -12 -6 -9 3 -16 11 -16 16 0 13 23 5 28 -10z"/>
<path d="M10595 6418 c-2 -7 -18 -51 -35 -97 -16 -47 -28 -86 -26 -88 4 -5 50
109 64 160 10 34 7 54 -3 25z"/>
<path d="M10748 6390 c31 -13 28 -23 -5 -16 -27 5 -27 5 -5 -6 13 -6 21 -17
18 -25 -3 -7 -1 -13 4 -13 5 0 13 12 16 26 7 27 -7 44 -36 43 -8 0 -5 -4 8 -9z"/>
<path d="M10728 6343 c7 -3 16 -2 19 1 4 3 -2 6 -13 5 -11 0 -14 -3 -6 -6z"/>
<path d="M10706 6315 c-8 -21 31 -40 50 -24 11 9 12 15 3 25 -15 18 -45 18
-53 -1z"/>
<path d="M10689 6248 c4 -13 6 -29 4 -35 -3 -7 2 -13 10 -13 9 0 23 -3 33 -7
12 -4 15 -3 10 5 -4 7 -17 13 -29 13 -20 1 -20 2 -2 6 48 12 44 35 -7 47 -25
6 -27 4 -19 -16z m41 -8 c0 -5 -7 -10 -15 -10 -8 0 -15 5 -15 10 0 6 7 10 15
10 8 0 15 -4 15 -10z"/>
<path d="M7790 6201 c0 -5 8 -15 18 -22 15 -12 16 -12 5 2 -7 9 -10 19 -6 22
3 4 1 7 -5 7 -7 0 -12 -4 -12 -9z"/>
<path d="M7405 6170 c-3 -5 -1 -10 4 -10 6 0 11 5 11 10 0 6 -2 10 -4 10 -3 0
-8 -4 -11 -10z"/>
<path d="M7445 6080 c-3 -5 -1 -10 4 -10 6 0 11 5 11 10 0 6 -2 10 -4 10 -3 0
-8 -4 -11 -10z"/>
<path d="M7794 6063 c4 -8 2 -13 -6 -14 -7 -1 -17 -2 -23 -4 -5 -1 -16 -3 -22
-3 -7 -1 -13 -7 -13 -13 0 -8 4 -8 13 -2 6 5 24 8 39 7 26 -3 33 15 13 33 -4
4 -5 2 -1 -4z"/>
<path d="M7968 6013 c7 -3 16 -2 19 1 4 3 -2 6 -13 5 -11 0 -14 -3 -6 -6z"/>
<path d="M7745 6000 c-3 -6 1 -7 9 -4 18 7 21 14 7 14 -6 0 -13 -4 -16 -10z"/>
<path d="M7668 5982 c-3 -11 0 -19 7 -19 7 0 12 6 11 13 -3 23 -13 26 -18 6z"/>
<path d="M7948 5993 c7 -3 16 -2 19 1 4 3 -2 6 -13 5 -11 0 -14 -3 -6 -6z"/>
<path d="M7766 5974 c-8 -20 -4 -25 11 -16 7 4 9 13 4 21 -6 10 -10 9 -15 -5z"/>
<path d="M7636 5965 c4 -8 8 -15 10 -15 2 0 4 7 4 15 0 8 -4 15 -10 15 -5 0
-7 -7 -4 -15z"/>
<path d="M10430 5956 c-15 -39 -23 -76 -17 -76 7 0 38 92 32 98 -2 3 -9 -7
-15 -22z"/>
<path d="M7709 5951 c9 -6 10 -10 2 -16 -7 -4 -18 -2 -26 5 -10 8 -15 8 -20 0
-4 -6 -13 -9 -19 -7 -7 3 -19 1 -27 -5 -11 -8 -10 -9 3 -4 10 3 21 -1 26 -10
8 -14 10 -14 21 0 7 8 19 12 27 9 11 -4 12 -9 4 -18 -9 -11 -7 -12 9 -8 12 3
17 11 14 19 -3 8 0 20 5 27 8 10 6 13 -11 14 -15 2 -18 0 -8 -6z"/>
<path d="M7776 5931 c-3 -5 1 -11 9 -14 9 -4 12 -1 8 9 -6 16 -10 17 -17 5z"/>
<path d="M7810 5916 c0 -2 8 -10 18 -17 15 -13 16 -12 3 4 -13 16 -21 21 -21
13z"/>
<path d="M7958 5903 c7 -3 16 -2 19 1 4 3 -2 6 -13 5 -11 0 -14 -3 -6 -6z"/>
<path d="M7704 5858 c-4 -7 -3 -8 4 -4 7 4 12 2 12 -3 0 -6 4 -11 10 -11 5 0
7 7 4 15 -7 18 -20 19 -30 3z"/>
<path d="M7746 5823 c6 -4 16 -17 22 -28 11 -19 12 -18 8 5 -2 15 -10 26 -22
28 -11 2 -15 0 -8 -5z"/>
<path d="M10032 4788 c-12 -24 -23 -63 -26 -88 -5 -44 -4 -44 5 -10 24 85 32
106 47 123 8 9 10 17 4 17 -5 0 -19 -19 -30 -42z"/>
<path d="M6238 2453 c6 -2 18 -2 25 0 6 3 1 5 -13 5 -14 0 -19 -2 -12 -5z"/>
</g>
</svg>
